<mxfile host="app.diagrams.net" modified="2024-01-22T18:36:28.140Z" agent="Mozilla/5.0 (Windows NT 10.0; Win64; x64) AppleWebKit/537.36 (KHTML, like Gecko) Chrome/120.0.0.0 Safari/537.36" etag="piclnRTJBGSWaMHQuPIs" version="22.1.21" type="github">
  <diagram name="Pagina-1" id="ZtDWFs8vRNodkU7NK99P">
    <mxGraphModel dx="1621" dy="1581" grid="1" gridSize="10" guides="1" tooltips="1" connect="1" arrows="1" fold="1" page="1" pageScale="1" pageWidth="827" pageHeight="1169" math="0" shadow="0">
      <root>
        <mxCell id="0" />
        <mxCell id="1" parent="0" />
        <mxCell id="KeYxlR6JVcF8Aqz_7-zb-4" value="External Data" style="shape=folder;fontStyle=1;spacingTop=10;tabWidth=40;tabHeight=14;tabPosition=left;html=1;whiteSpace=wrap;verticalAlign=top;" parent="1" vertex="1">
          <mxGeometry x="-280" y="400" width="410" height="340" as="geometry" />
        </mxCell>
        <mxCell id="KeYxlR6JVcF8Aqz_7-zb-3" value="Data" style="shape=folder;fontStyle=1;spacingTop=10;tabWidth=40;tabHeight=14;tabPosition=left;html=1;whiteSpace=wrap;verticalAlign=top;" parent="1" vertex="1">
          <mxGeometry x="250" y="-40" width="540" height="340" as="geometry" />
        </mxCell>
        <mxCell id="KeYxlR6JVcF8Aqz_7-zb-2" value="Application" style="shape=folder;fontStyle=1;spacingTop=10;tabWidth=40;tabHeight=14;tabPosition=left;html=1;whiteSpace=wrap;verticalAlign=top;" parent="1" vertex="1">
          <mxGeometry x="-280" y="-40" width="410" height="340" as="geometry" />
        </mxCell>
        <mxCell id="KeYxlR6JVcF8Aqz_7-zb-1" value="View" style="shape=folder;fontStyle=1;spacingTop=10;tabWidth=40;tabHeight=14;tabPosition=left;html=1;whiteSpace=wrap;verticalAlign=top;" parent="1" vertex="1">
          <mxGeometry x="-800" y="-40" width="330" height="340" as="geometry" />
        </mxCell>
        <mxCell id="5seyrMzP3nXMBWjV6_gZ-1" value="«Data»&lt;br style=&quot;border-color: var(--border-color);&quot;&gt;&lt;b&gt;Database&lt;/b&gt;" style="html=1;dropTarget=0;whiteSpace=wrap;" parent="1" vertex="1">
          <mxGeometry x="540" y="50" width="180" height="190" as="geometry" />
        </mxCell>
        <mxCell id="5seyrMzP3nXMBWjV6_gZ-2" value="" style="shape=module;jettyWidth=8;jettyHeight=4;" parent="5seyrMzP3nXMBWjV6_gZ-1" vertex="1">
          <mxGeometry x="1" width="20" height="20" relative="1" as="geometry">
            <mxPoint x="-27" y="7" as="offset" />
          </mxGeometry>
        </mxCell>
        <mxCell id="5seyrMzP3nXMBWjV6_gZ-15" value="" style="rounded=0;orthogonalLoop=1;jettySize=auto;html=1;endArrow=oval;endFill=0;sketch=0;sourcePerimeterSpacing=0;targetPerimeterSpacing=0;endSize=10;exitX=0;exitY=0.75;exitDx=0;exitDy=0;" parent="1" source="5seyrMzP3nXMBWjV6_gZ-1" target="5seyrMzP3nXMBWjV6_gZ-16" edge="1">
          <mxGeometry relative="1" as="geometry">
            <mxPoint x="470" y="218" as="sourcePoint" />
          </mxGeometry>
        </mxCell>
        <mxCell id="5seyrMzP3nXMBWjV6_gZ-16" value="" style="ellipse;whiteSpace=wrap;html=1;align=center;aspect=fixed;fillColor=none;strokeColor=none;resizable=0;perimeter=centerPerimeter;rotatable=0;allowArrows=0;points=[];outlineConnect=1;" parent="1" vertex="1">
          <mxGeometry x="195" y="190" width="10" height="10" as="geometry" />
        </mxCell>
        <mxCell id="5seyrMzP3nXMBWjV6_gZ-22" value="" style="ellipse;whiteSpace=wrap;html=1;align=center;aspect=fixed;fillColor=none;strokeColor=none;resizable=0;perimeter=centerPerimeter;rotatable=0;allowArrows=0;points=[];outlineConnect=1;" parent="1" vertex="1">
          <mxGeometry x="520" y="90" width="10" height="10" as="geometry" />
        </mxCell>
        <mxCell id="5seyrMzP3nXMBWjV6_gZ-24" value="«Controller»&lt;br style=&quot;border-color: var(--border-color);&quot;&gt;&lt;b&gt;UserManager&lt;/b&gt;" style="html=1;dropTarget=0;whiteSpace=wrap;" parent="1" vertex="1">
          <mxGeometry x="-260" y="50" width="180" height="90" as="geometry" />
        </mxCell>
        <mxCell id="5seyrMzP3nXMBWjV6_gZ-25" value="" style="shape=module;jettyWidth=8;jettyHeight=4;" parent="5seyrMzP3nXMBWjV6_gZ-24" vertex="1">
          <mxGeometry x="1" width="20" height="20" relative="1" as="geometry">
            <mxPoint x="-27" y="7" as="offset" />
          </mxGeometry>
        </mxCell>
        <mxCell id="5seyrMzP3nXMBWjV6_gZ-26" value="«Controller»&lt;br style=&quot;border-color: var(--border-color);&quot;&gt;&lt;b&gt;EventManager&lt;/b&gt;" style="html=1;dropTarget=0;whiteSpace=wrap;" parent="1" vertex="1">
          <mxGeometry x="-60" y="150" width="180" height="90" as="geometry" />
        </mxCell>
        <mxCell id="5seyrMzP3nXMBWjV6_gZ-27" value="" style="shape=module;jettyWidth=8;jettyHeight=4;" parent="5seyrMzP3nXMBWjV6_gZ-26" vertex="1">
          <mxGeometry x="1" width="20" height="20" relative="1" as="geometry">
            <mxPoint x="-27" y="7" as="offset" />
          </mxGeometry>
        </mxCell>
        <mxCell id="5seyrMzP3nXMBWjV6_gZ-28" value="" style="rounded=0;orthogonalLoop=1;jettySize=auto;html=1;endArrow=halfCircle;endFill=0;endSize=6;strokeWidth=1;sketch=0;exitX=1;exitY=0.5;exitDx=0;exitDy=0;" parent="1" source="5seyrMzP3nXMBWjV6_gZ-26" target="5seyrMzP3nXMBWjV6_gZ-30" edge="1">
          <mxGeometry relative="1" as="geometry">
            <mxPoint x="289.6400000000001" y="183.66000000000008" as="sourcePoint" />
          </mxGeometry>
        </mxCell>
        <mxCell id="5seyrMzP3nXMBWjV6_gZ-31" value="JCDB" style="edgeLabel;html=1;align=center;verticalAlign=middle;resizable=0;points=[];" parent="5seyrMzP3nXMBWjV6_gZ-28" vertex="1" connectable="0">
          <mxGeometry x="0.896" y="17" relative="1" as="geometry">
            <mxPoint x="4" y="37" as="offset" />
          </mxGeometry>
        </mxCell>
        <mxCell id="5seyrMzP3nXMBWjV6_gZ-30" value="" style="ellipse;whiteSpace=wrap;html=1;align=center;aspect=fixed;fillColor=none;strokeColor=none;resizable=0;perimeter=centerPerimeter;rotatable=0;allowArrows=0;points=[];outlineConnect=1;" parent="1" vertex="1">
          <mxGeometry x="195" y="190" width="10" height="10" as="geometry" />
        </mxCell>
        <mxCell id="5seyrMzP3nXMBWjV6_gZ-40" value="" style="ellipse;whiteSpace=wrap;html=1;align=center;aspect=fixed;fillColor=none;strokeColor=none;resizable=0;perimeter=centerPerimeter;rotatable=0;allowArrows=0;points=[];outlineConnect=1;" parent="1" vertex="1">
          <mxGeometry x="165" y="180" width="10" height="10" as="geometry" />
        </mxCell>
        <mxCell id="5seyrMzP3nXMBWjV6_gZ-41" value="JCDB&lt;br&gt;" style="edgeLabel;html=1;align=center;verticalAlign=middle;resizable=0;points=[];" parent="1" vertex="1" connectable="0">
          <mxGeometry x="190" y="120" as="geometry">
            <mxPoint x="9" y="-8" as="offset" />
          </mxGeometry>
        </mxCell>
        <mxCell id="5seyrMzP3nXMBWjV6_gZ-46" value="" style="ellipse;whiteSpace=wrap;html=1;align=center;aspect=fixed;fillColor=none;strokeColor=none;resizable=0;perimeter=centerPerimeter;rotatable=0;allowArrows=0;points=[];outlineConnect=1;" parent="1" vertex="1">
          <mxGeometry x="-5" y="60" width="10" height="10" as="geometry" />
        </mxCell>
        <mxCell id="5seyrMzP3nXMBWjV6_gZ-50" value="«DB»&lt;br style=&quot;border-color: var(--border-color);&quot;&gt;&lt;b&gt;FireBaseDB&lt;/b&gt;" style="html=1;dropTarget=0;whiteSpace=wrap;" parent="1" vertex="1">
          <mxGeometry x="-260" y="600" width="180" height="90" as="geometry" />
        </mxCell>
        <mxCell id="5seyrMzP3nXMBWjV6_gZ-51" value="" style="shape=module;jettyWidth=8;jettyHeight=4;" parent="5seyrMzP3nXMBWjV6_gZ-50" vertex="1">
          <mxGeometry x="1" width="20" height="20" relative="1" as="geometry">
            <mxPoint x="-27" y="7" as="offset" />
          </mxGeometry>
        </mxCell>
        <mxCell id="5seyrMzP3nXMBWjV6_gZ-52" value="«DB»&lt;br style=&quot;border-color: var(--border-color);&quot;&gt;&lt;b&gt;VisualCrossingDB&lt;/b&gt;" style="html=1;dropTarget=0;whiteSpace=wrap;" parent="1" vertex="1">
          <mxGeometry x="-60" y="600" width="180" height="90" as="geometry" />
        </mxCell>
        <mxCell id="5seyrMzP3nXMBWjV6_gZ-53" value="" style="shape=module;jettyWidth=8;jettyHeight=4;" parent="5seyrMzP3nXMBWjV6_gZ-52" vertex="1">
          <mxGeometry x="1" width="20" height="20" relative="1" as="geometry">
            <mxPoint x="-27" y="7" as="offset" />
          </mxGeometry>
        </mxCell>
        <mxCell id="5seyrMzP3nXMBWjV6_gZ-59" value="" style="rounded=0;orthogonalLoop=1;jettySize=auto;html=1;endArrow=oval;endFill=0;sketch=0;sourcePerimeterSpacing=0;targetPerimeterSpacing=0;endSize=10;exitX=0.5;exitY=0;exitDx=0;exitDy=0;entryX=0.067;entryY=1.233;entryDx=0;entryDy=0;entryPerimeter=0;" parent="1" source="5seyrMzP3nXMBWjV6_gZ-52" target="5seyrMzP3nXMBWjV6_gZ-60" edge="1">
          <mxGeometry relative="1" as="geometry">
            <mxPoint x="40" y="605" as="sourcePoint" />
          </mxGeometry>
        </mxCell>
        <mxCell id="5seyrMzP3nXMBWjV6_gZ-60" value="" style="ellipse;whiteSpace=wrap;html=1;align=center;aspect=fixed;fillColor=none;strokeColor=none;resizable=0;perimeter=centerPerimeter;rotatable=0;allowArrows=0;points=[];outlineConnect=1;" parent="1" vertex="1">
          <mxGeometry x="25" y="358" width="10" height="10" as="geometry" />
        </mxCell>
        <mxCell id="5seyrMzP3nXMBWjV6_gZ-65" value="" style="rounded=0;orthogonalLoop=1;jettySize=auto;html=1;endArrow=oval;endFill=0;sketch=0;sourcePerimeterSpacing=0;targetPerimeterSpacing=0;endSize=10;exitX=0.5;exitY=0;exitDx=0;exitDy=0;" parent="1" source="5seyrMzP3nXMBWjV6_gZ-50" edge="1">
          <mxGeometry relative="1" as="geometry">
            <mxPoint x="-170" y="650" as="sourcePoint" />
            <mxPoint x="-170" y="360" as="targetPoint" />
          </mxGeometry>
        </mxCell>
        <mxCell id="5seyrMzP3nXMBWjV6_gZ-64" value="" style="ellipse;whiteSpace=wrap;html=1;align=center;aspect=fixed;fillColor=none;strokeColor=none;resizable=0;perimeter=centerPerimeter;rotatable=0;allowArrows=0;points=[];outlineConnect=1;" parent="1" vertex="1">
          <mxGeometry x="-175" y="358" width="10" height="10" as="geometry" />
        </mxCell>
        <mxCell id="5seyrMzP3nXMBWjV6_gZ-67" value="" style="rounded=0;orthogonalLoop=1;jettySize=auto;html=1;endArrow=halfCircle;endFill=0;endSize=6;strokeWidth=1;sketch=0;exitX=0.5;exitY=1;exitDx=0;exitDy=0;" parent="1" source="5seyrMzP3nXMBWjV6_gZ-26" edge="1">
          <mxGeometry relative="1" as="geometry">
            <mxPoint x="80" y="280" as="sourcePoint" />
            <mxPoint x="30" y="360" as="targetPoint" />
          </mxGeometry>
        </mxCell>
        <mxCell id="5seyrMzP3nXMBWjV6_gZ-69" value="" style="ellipse;whiteSpace=wrap;html=1;align=center;aspect=fixed;fillColor=none;strokeColor=none;resizable=0;perimeter=centerPerimeter;rotatable=0;allowArrows=0;points=[];outlineConnect=1;" parent="1" vertex="1">
          <mxGeometry x="55" y="280" width="10" height="10" as="geometry" />
        </mxCell>
        <mxCell id="5seyrMzP3nXMBWjV6_gZ-70" value="HTTPrequestIF" style="text;html=1;align=center;verticalAlign=middle;resizable=0;points=[];autosize=1;strokeColor=none;fillColor=none;" parent="1" vertex="1">
          <mxGeometry x="25" y="348" width="110" height="30" as="geometry" />
        </mxCell>
        <mxCell id="5seyrMzP3nXMBWjV6_gZ-71" value="" style="rounded=0;orthogonalLoop=1;jettySize=auto;html=1;endArrow=halfCircle;endFill=0;endSize=6;strokeWidth=1;sketch=0;exitX=0.5;exitY=1;exitDx=0;exitDy=0;" parent="1" source="5seyrMzP3nXMBWjV6_gZ-24" edge="1">
          <mxGeometry relative="1" as="geometry">
            <mxPoint x="-110" y="360" as="sourcePoint" />
            <mxPoint x="-170" y="360" as="targetPoint" />
          </mxGeometry>
        </mxCell>
        <mxCell id="5seyrMzP3nXMBWjV6_gZ-73" value="" style="ellipse;whiteSpace=wrap;html=1;align=center;aspect=fixed;fillColor=none;strokeColor=none;resizable=0;perimeter=centerPerimeter;rotatable=0;allowArrows=0;points=[];outlineConnect=1;" parent="1" vertex="1">
          <mxGeometry x="55" y="280" width="10" height="10" as="geometry" />
        </mxCell>
        <mxCell id="5seyrMzP3nXMBWjV6_gZ-74" value="HTTPrequestIF" style="text;html=1;align=center;verticalAlign=middle;resizable=0;points=[];autosize=1;strokeColor=none;fillColor=none;" parent="1" vertex="1">
          <mxGeometry x="-175" y="348" width="110" height="30" as="geometry" />
        </mxCell>
        <mxCell id="5seyrMzP3nXMBWjV6_gZ-77" value="«Boundary»&lt;br style=&quot;border-color: var(--border-color);&quot;&gt;&lt;b&gt;UserGUI&lt;/b&gt;" style="html=1;dropTarget=0;whiteSpace=wrap;" parent="1" vertex="1">
          <mxGeometry x="-745" y="50" width="180" height="90" as="geometry" />
        </mxCell>
        <mxCell id="5seyrMzP3nXMBWjV6_gZ-78" value="" style="shape=module;jettyWidth=8;jettyHeight=4;" parent="5seyrMzP3nXMBWjV6_gZ-77" vertex="1">
          <mxGeometry x="1" width="20" height="20" relative="1" as="geometry">
            <mxPoint x="-27" y="7" as="offset" />
          </mxGeometry>
        </mxCell>
        <mxCell id="5seyrMzP3nXMBWjV6_gZ-79" value="«Boundary»&lt;br style=&quot;border-color: var(--border-color);&quot;&gt;&lt;b&gt;EventGUI&lt;/b&gt;" style="html=1;dropTarget=0;whiteSpace=wrap;" parent="1" vertex="1">
          <mxGeometry x="-745" y="150" width="180" height="90" as="geometry" />
        </mxCell>
        <mxCell id="5seyrMzP3nXMBWjV6_gZ-80" value="" style="shape=module;jettyWidth=8;jettyHeight=4;" parent="5seyrMzP3nXMBWjV6_gZ-79" vertex="1">
          <mxGeometry x="1" width="20" height="20" relative="1" as="geometry">
            <mxPoint x="-27" y="7" as="offset" />
          </mxGeometry>
        </mxCell>
        <mxCell id="5seyrMzP3nXMBWjV6_gZ-81" value="" style="rounded=0;orthogonalLoop=1;jettySize=auto;html=1;endArrow=halfCircle;endFill=0;endSize=6;strokeWidth=1;sketch=0;exitX=1;exitY=0.5;exitDx=0;exitDy=0;" parent="1" source="5seyrMzP3nXMBWjV6_gZ-77" target="5seyrMzP3nXMBWjV6_gZ-83" edge="1">
          <mxGeometry relative="1" as="geometry">
            <mxPoint x="-380" y="95" as="sourcePoint" />
          </mxGeometry>
        </mxCell>
        <mxCell id="5seyrMzP3nXMBWjV6_gZ-82" value="" style="rounded=0;orthogonalLoop=1;jettySize=auto;html=1;endArrow=oval;endFill=0;sketch=0;sourcePerimeterSpacing=0;targetPerimeterSpacing=0;endSize=10;exitX=0;exitY=0.5;exitDx=0;exitDy=0;" parent="1" source="5seyrMzP3nXMBWjV6_gZ-24" target="5seyrMzP3nXMBWjV6_gZ-83" edge="1">
          <mxGeometry relative="1" as="geometry">
            <mxPoint x="-420" y="95" as="sourcePoint" />
          </mxGeometry>
        </mxCell>
        <mxCell id="5seyrMzP3nXMBWjV6_gZ-83" value="" style="ellipse;whiteSpace=wrap;html=1;align=center;aspect=fixed;fillColor=none;strokeColor=none;resizable=0;perimeter=centerPerimeter;rotatable=0;allowArrows=0;points=[];outlineConnect=1;" parent="1" vertex="1">
          <mxGeometry x="-380" y="90" width="10" height="10" as="geometry" />
        </mxCell>
        <mxCell id="5seyrMzP3nXMBWjV6_gZ-84" value="HTTP/restIF" style="text;html=1;align=center;verticalAlign=middle;resizable=0;points=[];autosize=1;strokeColor=none;fillColor=none;" parent="1" vertex="1">
          <mxGeometry x="-415" y="98" width="90" height="30" as="geometry" />
        </mxCell>
        <mxCell id="5seyrMzP3nXMBWjV6_gZ-85" value="" style="rounded=0;orthogonalLoop=1;jettySize=auto;html=1;endArrow=halfCircle;endFill=0;endSize=6;strokeWidth=1;sketch=0;exitX=1;exitY=0.5;exitDx=0;exitDy=0;" parent="1" source="5seyrMzP3nXMBWjV6_gZ-79" edge="1">
          <mxGeometry relative="1" as="geometry">
            <mxPoint x="-380" y="95" as="sourcePoint" />
            <mxPoint x="-370" y="195" as="targetPoint" />
          </mxGeometry>
        </mxCell>
        <mxCell id="5seyrMzP3nXMBWjV6_gZ-86" value="" style="rounded=0;orthogonalLoop=1;jettySize=auto;html=1;endArrow=oval;endFill=0;sketch=0;sourcePerimeterSpacing=0;targetPerimeterSpacing=0;endSize=10;exitX=0;exitY=0.5;exitDx=0;exitDy=0;" parent="1" source="5seyrMzP3nXMBWjV6_gZ-26" edge="1">
          <mxGeometry relative="1" as="geometry">
            <mxPoint x="-420" y="95" as="sourcePoint" />
            <mxPoint x="-370" y="195" as="targetPoint" />
          </mxGeometry>
        </mxCell>
        <mxCell id="5seyrMzP3nXMBWjV6_gZ-87" value="" style="ellipse;whiteSpace=wrap;html=1;align=center;aspect=fixed;fillColor=none;strokeColor=none;resizable=0;perimeter=centerPerimeter;rotatable=0;allowArrows=0;points=[];outlineConnect=1;" parent="1" vertex="1">
          <mxGeometry x="-405" y="90" width="10" height="10" as="geometry" />
        </mxCell>
        <mxCell id="5seyrMzP3nXMBWjV6_gZ-88" value="HTTP/restIF" style="text;html=1;align=center;verticalAlign=middle;resizable=0;points=[];autosize=1;strokeColor=none;fillColor=none;" parent="1" vertex="1">
          <mxGeometry x="-413" y="200" width="90" height="30" as="geometry" />
        </mxCell>
        <mxCell id="zFvqHr5xl_vMfdKAqCoj-5" value="" style="rounded=0;orthogonalLoop=1;jettySize=auto;html=1;endArrow=halfCircle;endFill=0;endSize=6;strokeWidth=1;sketch=0;exitX=1;exitY=0.5;exitDx=0;exitDy=0;" parent="1" source="5seyrMzP3nXMBWjV6_gZ-24" target="zFvqHr5xl_vMfdKAqCoj-7" edge="1">
          <mxGeometry relative="1" as="geometry">
            <mxPoint x="280" y="125" as="sourcePoint" />
          </mxGeometry>
        </mxCell>
        <mxCell id="zFvqHr5xl_vMfdKAqCoj-6" value="" style="rounded=0;orthogonalLoop=1;jettySize=auto;html=1;endArrow=oval;endFill=0;sketch=0;sourcePerimeterSpacing=0;targetPerimeterSpacing=0;endSize=10;exitX=0;exitY=0.25;exitDx=0;exitDy=0;" parent="1" source="zFvqHr5xl_vMfdKAqCoj-7" edge="1">
          <mxGeometry relative="1" as="geometry">
            <mxPoint x="240" y="125" as="sourcePoint" />
            <mxPoint x="200" y="95" as="targetPoint" />
          </mxGeometry>
        </mxCell>
        <mxCell id="zFvqHr5xl_vMfdKAqCoj-9" value="" style="rounded=0;orthogonalLoop=1;jettySize=auto;html=1;endArrow=oval;endFill=0;sketch=0;sourcePerimeterSpacing=0;targetPerimeterSpacing=0;endSize=10;exitX=0;exitY=0.25;exitDx=0;exitDy=0;" parent="1" source="5seyrMzP3nXMBWjV6_gZ-1" target="zFvqHr5xl_vMfdKAqCoj-7" edge="1">
          <mxGeometry relative="1" as="geometry">
            <mxPoint x="580" y="98" as="sourcePoint" />
            <mxPoint x="200" y="95" as="targetPoint" />
          </mxGeometry>
        </mxCell>
        <mxCell id="zFvqHr5xl_vMfdKAqCoj-7" value="" style="ellipse;whiteSpace=wrap;html=1;align=center;aspect=fixed;fillColor=none;strokeColor=none;resizable=0;perimeter=centerPerimeter;rotatable=0;allowArrows=0;points=[];outlineConnect=1;" parent="1" vertex="1">
          <mxGeometry x="195" y="90" width="10" height="10" as="geometry" />
        </mxCell>
        <mxCell id="KeYxlR6JVcF8Aqz_7-zb-5" value="«Data»&lt;br&gt;&lt;b&gt;MeteoData&lt;/b&gt;" style="html=1;dropTarget=0;whiteSpace=wrap;" parent="1" vertex="1">
          <mxGeometry x="-60" y="450" width="180" height="90" as="geometry" />
        </mxCell>
        <mxCell id="KeYxlR6JVcF8Aqz_7-zb-6" value="" style="shape=module;jettyWidth=8;jettyHeight=4;" parent="KeYxlR6JVcF8Aqz_7-zb-5" vertex="1">
          <mxGeometry x="1" width="20" height="20" relative="1" as="geometry">
            <mxPoint x="-27" y="7" as="offset" />
          </mxGeometry>
        </mxCell>
        <mxCell id="KeYxlR6JVcF8Aqz_7-zb-7" value="«Data»&lt;br&gt;&lt;b&gt;UserData&lt;/b&gt;" style="html=1;dropTarget=0;whiteSpace=wrap;" parent="1" vertex="1">
          <mxGeometry x="-260" y="450" width="180" height="90" as="geometry" />
        </mxCell>
        <mxCell id="KeYxlR6JVcF8Aqz_7-zb-8" value="" style="shape=module;jettyWidth=8;jettyHeight=4;" parent="KeYxlR6JVcF8Aqz_7-zb-7" vertex="1">
          <mxGeometry x="1" width="20" height="20" relative="1" as="geometry">
            <mxPoint x="-27" y="7" as="offset" />
          </mxGeometry>
        </mxCell>
        <mxCell id="KeYxlR6JVcF8Aqz_7-zb-62" value="«Data»&lt;br&gt;&lt;b&gt;MeteoData&lt;/b&gt;" style="html=1;dropTarget=0;whiteSpace=wrap;" parent="1" vertex="1">
          <mxGeometry x="300" y="50" width="180" height="90" as="geometry" />
        </mxCell>
        <mxCell id="KeYxlR6JVcF8Aqz_7-zb-63" value="" style="shape=module;jettyWidth=8;jettyHeight=4;" parent="KeYxlR6JVcF8Aqz_7-zb-62" vertex="1">
          <mxGeometry x="1" width="20" height="20" relative="1" as="geometry">
            <mxPoint x="-27" y="7" as="offset" />
          </mxGeometry>
        </mxCell>
        <mxCell id="KeYxlR6JVcF8Aqz_7-zb-65" value="«Data»&lt;br&gt;&lt;b&gt;MeteoData&lt;/b&gt;" style="html=1;dropTarget=0;whiteSpace=wrap;" parent="1" vertex="1">
          <mxGeometry x="300" y="150" width="180" height="90" as="geometry" />
        </mxCell>
        <mxCell id="KeYxlR6JVcF8Aqz_7-zb-66" value="" style="shape=module;jettyWidth=8;jettyHeight=4;" parent="KeYxlR6JVcF8Aqz_7-zb-65" vertex="1">
          <mxGeometry x="1" width="20" height="20" relative="1" as="geometry">
            <mxPoint x="-27" y="7" as="offset" />
          </mxGeometry>
        </mxCell>
      </root>
    </mxGraphModel>
  </diagram>
</mxfile>
